<svg xmlns="http://www.w3.org/2000/svg" width="1024" height="1024" viewBox="0 0 1024 1024" version="1.1"><path d="M 338.215 264.257 C 333.287 265.836, 326.388 272.418, 324.512 277.330 C 323.159 280.873, 322.927 284.841, 323.186 300.061 L 323.500 318.500 378.904 417.500 C 409.377 471.950, 434.314 516.991, 434.321 517.590 C 434.328 518.190, 406.785 556.553, 373.115 602.842 C 339.445 649.131, 311.245 688.563, 310.448 690.469 C 309.314 693.185, 309.005 699.306, 309.022 718.718 C 309.041 740.628, 309.257 743.970, 310.886 747.556 C 313.154 752.549, 319.683 758.289, 324.858 759.839 C 327.737 760.702, 375.572 760.997, 511.116 760.990 L 693.500 760.980 698.541 758.633 C 703.966 756.107, 708.467 751.495, 710.694 746.181 C 711.795 743.552, 712.424 725.610, 713.717 659.962 L 715.349 577.063 712.409 571.315 C 710.181 566.957, 708.283 564.833, 704.566 562.533 L 699.664 559.500 675.082 559.195 C 648.132 558.860, 644.450 559.356, 638.696 564.099 C 633.389 568.474, 631.190 574.075, 629.483 587.575 C 626.306 612.693, 622.476 623.770, 614.558 630.740 C 606.630 637.718, 610.462 637.407, 528.172 637.751 C 467.953 638.003, 453.994 637.818, 454.633 636.781 C 455.067 636.076, 476.793 606.700, 502.914 571.500 C 529.034 536.300, 551.439 505.657, 552.702 503.404 C 555.370 498.646, 556.561 489.646, 555.571 481.722 C 554.973 476.939, 550.169 467.675, 519.441 412.048 C 499.948 376.761, 484 347.651, 484 347.360 C 484 347.070, 505.262 347.016, 531.250 347.241 C 572.261 347.597, 579.187 347.875, 583.703 349.350 C 596.098 353.399, 598.255 358.160, 601.005 387.552 C 602.820 406.950, 603.323 409.823, 605.656 414.110 C 608.468 419.276, 613.606 423.453, 619.080 425.023 C 623.693 426.346, 666.495 426.268, 671.321 424.928 C 675.999 423.629, 682.479 417.941, 685.072 412.858 C 687.462 408.174, 687.515 399.191, 685.561 330 C 684.020 275.436, 684.087 275.888, 676.444 269.160 C 674.065 267.065, 670.352 264.823, 668.193 264.176 C 662.915 262.595, 343.158 262.673, 338.215 264.257" stroke="none" fill="#fbfbfc" fill-rule="evenodd"/><path d="M 472 1.054 C 396.022 7.514, 325.314 29.046, 261 65.306 C 119.041 145.342, 23.617 287.386, 3.572 448.500 C -1.330 487.899, -1.330 536.101, 3.572 575.500 C 25.357 750.603, 136.551 902.830, 296.860 977.017 C 349.228 1001.251, 401.123 1015.366, 463 1022.204 C 478.657 1023.934, 544.394 1023.929, 561 1022.195 C 720.883 1005.508, 858.126 921.186, 944.621 786.500 C 987.732 719.370, 1016.320 635.058, 1022.099 558 C 1022.697 550.025, 1023.595 542.719, 1024.093 541.764 C 1025.375 539.309, 1025.284 480.706, 1024 481.500 C 1023.385 481.880, 1023 480.212, 1023 477.165 C 1023 465.015, 1018.609 431.995, 1013.946 409.068 C 979.650 240.477, 860.899 98.898, 700.683 35.586 C 658.518 18.923, 613.230 7.697, 566.983 2.444 C 550.100 0.526, 488.767 -0.371, 472 1.054 M 338.215 264.257 C 333.287 265.836, 326.388 272.418, 324.512 277.330 C 323.159 280.873, 322.927 284.841, 323.186 300.061 L 323.500 318.500 378.904 417.500 C 409.377 471.950, 434.314 516.991, 434.321 517.590 C 434.328 518.190, 406.785 556.553, 373.115 602.842 C 339.445 649.131, 311.245 688.563, 310.448 690.469 C 309.314 693.185, 309.005 699.306, 309.022 718.718 C 309.041 740.628, 309.257 743.970, 310.886 747.556 C 313.154 752.549, 319.683 758.289, 324.858 759.839 C 327.737 760.702, 375.572 760.997, 511.116 760.990 L 693.500 760.980 698.541 758.633 C 703.966 756.107, 708.467 751.495, 710.694 746.181 C 711.795 743.552, 712.424 725.610, 713.717 659.962 L 715.349 577.063 712.409 571.315 C 710.181 566.957, 708.283 564.833, 704.566 562.533 L 699.664 559.500 675.082 559.195 C 648.132 558.860, 644.450 559.356, 638.696 564.099 C 633.389 568.474, 631.190 574.075, 629.483 587.575 C 626.306 612.693, 622.476 623.770, 614.558 630.740 C 606.630 637.718, 610.462 637.407, 528.172 637.751 C 467.953 638.003, 453.994 637.818, 454.633 636.781 C 455.067 636.076, 476.793 606.700, 502.914 571.500 C 529.034 536.300, 551.439 505.657, 552.702 503.404 C 555.370 498.646, 556.561 489.646, 555.571 481.722 C 554.973 476.939, 550.169 467.675, 519.441 412.048 C 499.948 376.761, 484 347.651, 484 347.360 C 484 347.070, 505.262 347.016, 531.250 347.241 C 572.261 347.597, 579.187 347.875, 583.703 349.350 C 596.098 353.399, 598.255 358.160, 601.005 387.552 C 602.820 406.950, 603.323 409.823, 605.656 414.110 C 608.468 419.276, 613.606 423.453, 619.080 425.023 C 623.693 426.346, 666.495 426.268, 671.321 424.928 C 675.999 423.629, 682.479 417.941, 685.072 412.858 C 687.462 408.174, 687.515 399.191, 685.561 330 C 684.020 275.436, 684.087 275.888, 676.444 269.160 C 674.065 267.065, 670.352 264.823, 668.193 264.176 C 662.915 262.595, 343.158 262.673, 338.215 264.257 M 0.444 512 C 0.444 528.775, 0.581 535.638, 0.748 527.250 C 0.915 518.862, 0.915 505.137, 0.748 496.750 C 0.581 488.363, 0.444 495.225, 0.444 512" stroke="none" fill="#1c64f3" fill-rule="evenodd"/></svg>